<svg width="20" height="20" viewBox="0 0 20 20" fill="none" xmlns="http://www.w3.org/2000/svg">
<path d="M5.83329 18.3333H3.33329C2.89127 18.3333 2.46734 18.1577 2.15478 17.8452C1.84222 17.5326 1.66663 17.1087 1.66663 16.6667V10.8333C1.66663 10.3913 1.84222 9.96738 2.15478 9.65482C2.46734 9.34226 2.89127 9.16666 3.33329 9.16666H5.83329M11.6666 7.5V4.16666C11.6666 3.50362 11.4032 2.86774 10.9344 2.3989C10.4656 1.93006 9.82967 1.66666 9.16663 1.66666L5.83329 9.16666V18.3333H15.2333C15.6352 18.3379 16.0253 18.197 16.3315 17.9367C16.6378 17.6763 16.8397 17.3141 16.9 16.9167L18.05 9.41666C18.0862 9.17779 18.0701 8.9339 18.0027 8.70187C17.9354 8.46985 17.8184 8.25524 17.6598 8.07293C17.5013 7.89061 17.305 7.74494 17.0846 7.64601C16.8642 7.54708 16.6249 7.49726 16.3833 7.5H11.6666Z" stroke="white" stroke-width="2" stroke-linecap="round" stroke-linejoin="round"/>
</svg>
