<svg width="20" height="20" viewBox="0 0 20 20" fill="none" xmlns="http://www.w3.org/2000/svg">
<path d="M19.1667 2.49996C18.3687 3.06285 17.4851 3.49338 16.55 3.77496C16.0482 3.19788 15.3812 2.78887 14.6392 2.60323C13.8973 2.41759 13.1163 2.46429 12.4018 2.737C11.6873 3.00972 11.0737 3.49529 10.6442 4.12805C10.2146 4.76082 9.98979 5.51024 10 6.27496V7.10829C8.53557 7.14626 7.08444 6.82147 5.77588 6.16283C4.46733 5.50419 3.34197 4.53215 2.50004 3.33329C2.50004 3.33329 -0.833292 10.8333 6.66671 14.1666C4.95048 15.3316 2.906 15.9157 0.833374 15.8333C8.33337 20 17.5 15.8333 17.5 6.24996C17.4993 6.01783 17.477 5.78629 17.4334 5.55829C18.2839 4.71953 18.8841 3.66055 19.1667 2.49996V2.49996Z" stroke="white" stroke-linecap="round" stroke-linejoin="round"/>
</svg>
